<?xml version="1.0"?>
<svg xmlns="http://www.w3.org/2000/svg" id="Outline" viewBox="0 0 512 512" width="512" height="512"><title>sharing-Share-data-information-Network</title><path d="M306.745,312H280V256a24,24,0,0,0-48,0v92.687l-5.372-5.374a24.971,24.971,0,0,0-35.315,35.315L232,419.313V432h-8a8,8,0,0,0-8,8v56h16V448h96v48h16V440a8,8,0,0,0-8-8h-8V419.313l16.4-16.4A53.255,53.255,0,0,0,306.745,312Zm26.343,79.6-18.745,18.745A8,8,0,0,0,312,416v16H248V416a8,8,0,0,0-2.343-5.657l-43.029-43.03a8.97,8.97,0,1,1,12.685-12.685l19.03,19.029A8,8,0,0,0,248,368V256a8,8,0,0,1,16,0v64a8,8,0,0,0,8,8h34.745a37.255,37.255,0,0,1,26.343,63.6Z"/><rect x="296" y="464" width="16" height="16"/><path d="M192,256a63.523,63.523,0,0,0,19.212,45.718l11.2-11.43a48,48,0,1,1,67.182,0l11.2,11.43A64,64,0,1,0,192,256Z"/><path d="M488,296a8,8,0,0,0,7.155-11.578L480,254.111V208a8,8,0,0,0-8-8H448V112h40a8,8,0,0,0,7.155-11.578L480,70.111V24a8,8,0,0,0-8-8H408a8,8,0,0,0-8,8V40H296V24a8,8,0,0,0-8-8H224a8,8,0,0,0-8,8V40H112V24a8,8,0,0,0-8-8H40a8,8,0,0,0-8,8V70.111L16.845,100.422A8,8,0,0,0,24,112H64v88H40a8,8,0,0,0-8,8v46.111L16.845,284.422A8,8,0,0,0,24,296H64v88H40a8,8,0,0,0-8,8v46.111L16.845,468.422A8,8,0,0,0,24,480h96a8,8,0,0,0,7.155-11.578L112,438.111V392a8,8,0,0,0-8-8H80V296h40a8,8,0,0,0,7.155-11.578L112,254.111V208a8,8,0,0,0-8-8H80V112h40a8,8,0,0,0,7.155-11.578L112,70.111V56H216V70.111l-15.155,30.311A8,8,0,0,0,208,112h96a8,8,0,0,0,7.155-11.578L296,70.111V56H400V70.111l-15.155,30.311A8,8,0,0,0,392,112h40v88H408a8,8,0,0,0-8,8v46.111l-15.155,30.311A8,8,0,0,0,392,296h40v88H408a8,8,0,0,0-8,8v46.111l-15.155,30.311A8,8,0,0,0,392,480h96a8,8,0,0,0,7.155-11.578L480,438.111V392a8,8,0,0,0-8-8H448V296ZM36.944,464l8-16H99.056l8,16ZM96,432H48V400H96ZM36.944,280l8-16H99.056l8,16ZM96,248H48V216H96ZM48,32H96V64H48ZM36.944,96l8-16H99.056l8,16ZM232,32h48V64H232ZM220.944,96l8-16h54.112l8,16ZM416,32h48V64H416Zm-3.056,48h54.112l8,16H404.944Zm-8,384,8-16h54.112l8,16ZM464,432H416V400h48ZM416,216h48v32H416Zm-3.056,48h54.112l8,16H404.944Z"/><rect x="248" y="128" width="16" height="48"/><rect x="128" y="248" width="48" height="16"/><rect x="336" y="248" width="48" height="16"/></svg>
