<svg height="24pt" viewBox="0 0 24 24" width="24pt" xmlns="http://www.w3.org/2000/svg"><path d="m56 240c0 101.621094 82.378906 184 184 184s184-82.378906 184-184-82.378906-184-184-184c-101.574219.113281-183.886719 82.425781-184 184zm256.976562-92.425781c-47.953124 11.617187-97.984374 11.617187-145.9375 0 15.96875-45.175781 42.992188-75.574219 72.960938-75.574219s57.007812 30.398438 72.976562 75.574219zm-72.976562 260.425781c-29.984375 0-57.023438-30.398438-72.984375-75.609375 47.957031-11.65625 98.011719-11.65625 145.96875 0-15.96875 45.210937-43.007813 75.609375-72.984375 75.609375zm-87.785156-176c.515625-23.378906 3.882812-46.605469 10.03125-69.167969 25.398437 6.546875 51.527344 9.84375 77.753906 9.808594 26.226562.015625 52.351562-3.261719 77.761719-9.761719 6.140625 22.546875 9.507812 45.757813 10.023437 69.121094zm175.570312 16c-.515625 23.359375-3.882812 46.570312-10.023437 69.113281-51.082031-12.585937-104.449219-12.585937-155.53125 0-6.136719-22.546875-9.5-45.753906-10.015625-69.113281zm-191.671875-16h-63.707031c1.546875-33.34375 13.058594-65.453125 33.050781-92.183594 12.929688 7.667969 26.6875 13.84375 41.015625 18.398438-6.433594 24.085937-9.910156 48.863281-10.359375 73.785156zm0 16c.445313 24.886719 3.917969 49.625 10.34375 73.671875-14.324219 4.59375-28.078125 10.800781-41 18.503906-19.992187-26.726562-31.503906-58.835937-33.050781-92.175781zm207.773438 0h63.707031c-1.546875 33.347656-13.058594 65.460938-33.058594 92.191406-12.925781-7.691406-26.675781-13.902344-40.992187-18.511718 6.425781-24.050782 9.898437-48.792969 10.34375-73.679688zm0-16c-.445313-24.886719-3.917969-49.628906-10.34375-73.679688 14.332031-4.582031 28.09375-10.785156 41.015625-18.488281 19.984375 26.726563 31.488281 58.832031 33.035156 92.167969zm-156.496094-151.441406c-16.496094 17.898437-28.855469 39.199218-36.207031 62.402344-12.335938-3.953126-24.222656-9.1875-35.464844-15.625 19.460938-21.507813 44.148438-37.621094 71.671875-46.777344zm-71.664063 272.089844c11.242188-6.433594 23.113282-11.6875 35.433594-15.679688 7.351563 23.226562 19.722656 44.554688 36.230469 62.472656-27.523437-9.15625-52.210937-25.273437-71.664063-46.792968zm176.882813 46.792968c16.507813-17.917968 28.878906-39.246094 36.230469-62.472656 12.324218 3.984375 24.199218 9.242188 35.433594 15.6875-19.453126 21.515625-44.140626 37.628906-71.664063 46.785156zm71.6875-272.066406c-11.238281 6.453125-23.121094 11.703125-35.457031 15.664062-7.351563-23.230468-19.71875-44.5625-36.230469-62.480468 27.535156 9.160156 52.230469 25.289062 71.6875 46.816406zm0 0"/><path d="m8 64h32v16h-24v16h64v-16h-24v-16h32c4.417969 0 8-3.582031 8-8v-48c0-4.417969-3.582031-8-8-8h-80c-4.417969 0-8 3.582031-8 8v48c0 4.417969 3.582031 8 8 8zm8-48h64v32h-64zm0 0"/><path d="m472 0h-80c-4.417969 0-8 3.582031-8 8v48c0 4.417969 3.582031 8 8 8h32v16h-24v16h64v-16h-24v-16h32c4.417969 0 8-3.582031 8-8v-48c0-4.417969-3.582031-8-8-8zm-8 48h-64v-32h64zm0 0"/><path d="m88 384h-80c-4.417969 0-8 3.582031-8 8v48c0 4.417969 3.582031 8 8 8h32v16h-24v16h64v-16h-24v-16h32c4.417969 0 8-3.582031 8-8v-48c0-4.417969-3.582031-8-8-8zm-8 48h-64v-32h64zm0 0"/><path d="m472 384h-80c-4.417969 0-8 3.582031-8 8v48c0 4.417969 3.582031 8 8 8h32v16h-24v16h64v-16h-24v-16h32c4.417969 0 8-3.582031 8-8v-48c0-4.417969-3.582031-8-8-8zm-8 48h-64v-32h64zm0 0"/><path d="m53.144531 363.585938c-49.539062-74.957032-49.539062-172.25 0-247.203126l-13.335937-8.796874c-53.0625 80.289062-53.0625 184.507812 0 264.796874zm0 0"/><path d="m240 464c-43.957031.070312-86.949219-12.851562-123.585938-37.144531l-8.796874 13.335937c80.289062 53.0625 184.507812 53.0625 264.796874 0l-8.796874-13.335937c-36.644532 24.296875-79.652344 37.222656-123.617188 37.144531zm0 0"/><path d="m426.855469 116.414062c49.539062 74.957032 49.539062 172.25 0 247.203126l13.335937 8.796874c53.0625-80.289062 53.0625-184.507812 0-264.796874zm0 0"/><path d="m240 16c43.957031-.070312 86.949219 12.851562 123.585938 37.144531l8.796874-13.335937c-80.289062-53.0625-184.507812-53.0625-264.796874 0l8.796874 13.335937c36.644532-24.296875 79.652344-37.222656 123.617188-37.144531zm0 0"/></svg>